<svg width="15" height="15" viewBox="0 0 15 15" fill="none" xmlns="http://www.w3.org/2000/svg">
<g clip-path="url(#clip0)">
<path d="M14.8952 0.134095C14.8079 0.0467762 14.6884 -0.00231898 14.5657 8.42835e-05C14.4979 0.00088537 12.8803 0.0281223 10.8828 0.618867L14.4103 4.1464C15.0011 2.14894 15.0283 0.531319 15.0291 0.463456C15.0307 0.340088 14.9824 0.221299 14.8952 0.134095V0.134095Z" fill="#FF5B5B"/>
<path d="M14.8955 0.133789L12.647 2.38244L14.4107 4.1462C15.0015 2.14875 15.0287 0.531128 15.0295 0.463265C15.0311 0.339897 14.9828 0.221108 14.8955 0.133789V0.133789Z" fill="#FF193D"/>
<path d="M4.61677 7.79837C4.60727 7.79837 4.59777 7.79802 4.58816 7.79745L0.458444 7.53962C0.301316 7.52989 0.160325 7.44005 0.0850231 7.30192C0.00983537 7.16379 0.0107509 6.99659 0.0876552 6.85926C0.109285 6.82058 0.629762 5.90288 1.62094 5.10248C2.96035 4.02101 4.51744 3.67025 6.12373 4.08819C6.25705 4.12286 6.3676 4.21579 6.42482 4.3411C6.48204 4.46641 6.47976 4.61084 6.41853 4.73421L5.02681 7.54385C4.94922 7.70041 4.78981 7.79837 4.61677 7.79837V7.79837Z" fill="#FF5B5B"/>
<path d="M7.94581 14.9994C7.87051 14.9994 7.79521 14.9808 7.72689 14.9435C7.58876 14.8682 7.49892 14.7273 7.48908 14.5702L7.23136 10.4405C7.21991 10.2566 7.31982 10.0837 7.48496 10.0019L10.2946 8.61002C10.4181 8.54891 10.5624 8.54662 10.6877 8.60384C10.8131 8.66095 10.9059 8.77161 10.9406 8.90494C11.3587 10.5112 11.0079 12.0683 9.92633 13.4077C9.12605 14.3989 8.20823 14.9193 8.16955 14.941C8.10008 14.9799 8.02295 14.9994 7.94581 14.9994V14.9994Z" fill="#FF193D"/>
<path d="M14.2951 3.69358L11.3361 0.734595C11.2176 0.616034 11.0436 0.57186 10.8828 0.619353C8.90195 1.20529 7.27586 2.12425 6.0494 3.3506C5.79362 3.60649 5.54792 3.88378 5.31926 4.17469C4.65436 5.02007 4.09898 6.01959 3.66868 7.14558C3.3946 7.86324 3.17144 8.63205 3.00538 9.43062C2.71539 10.8255 2.69982 11.8253 2.69925 11.8672C2.69776 11.9904 2.74606 12.1092 2.83326 12.1964C2.91909 12.2823 3.03559 12.3304 3.1569 12.3304H3.16251C3.20451 12.33 4.20427 12.3144 5.59907 12.0244C6.39764 11.8584 7.16646 11.6352 7.88423 11.361C9.0101 10.9307 10.0096 10.3754 10.8548 9.71066C11.1459 9.48189 11.4232 9.23618 11.6791 8.98029C12.9056 7.75383 13.8245 6.12774 14.4103 4.14688C14.4579 3.98609 14.4137 3.81214 14.2951 3.69358V3.69358Z" fill="#E1F1FA"/>
<path d="M5.91197 11.3344L3.69502 9.11741C3.53137 8.95376 3.27124 8.93808 3.08905 9.0809C2.94749 9.19191 2.81279 9.31116 2.68874 9.43521C1.14619 10.9778 1.09847 13.3679 1.09721 13.4688C1.0956 13.5922 1.1439 13.711 1.23122 13.7982C1.31705 13.8841 1.43343 13.9323 1.55474 13.9323C1.55669 13.9323 1.55863 13.9323 1.56058 13.9322C1.66152 13.9309 4.05173 13.8832 5.59416 12.3406C5.71822 12.2166 5.83747 12.0819 5.94847 11.9403C6.0913 11.7581 6.07562 11.498 5.91197 11.3344V11.3344Z" fill="#FFF261"/>
<path d="M3.70422 7.05371L2.34409 8.41395C2.25826 8.49967 2.20996 8.61606 2.20996 8.73748C2.20996 8.85879 2.25826 8.97517 2.34409 9.061L5.96855 12.6855C6.05427 12.7713 6.17065 12.8195 6.29207 12.8195C6.4135 12.8195 6.52977 12.7713 6.6156 12.6855L7.97573 11.3253L3.70422 7.05371Z" fill="#1B3B6B"/>
<path d="M9.64147 6.78421C9.26862 6.78421 8.91798 6.63898 8.6543 6.37531C8.11002 5.83103 8.11002 4.94548 8.6543 4.40109C8.91798 4.13741 9.26862 3.99219 9.64147 3.99219C10.0143 3.99219 10.365 4.13741 10.6286 4.40109C10.8923 4.66476 11.0375 5.01529 11.0375 5.38825C11.0375 5.7611 10.8923 6.11164 10.6286 6.37531C10.365 6.63898 10.0143 6.78421 9.64147 6.78421Z" fill="#06CCAB"/>
<path d="M9.64141 7.231C9.14897 7.231 8.68606 7.0392 8.33793 6.69107C7.61913 5.97227 7.61913 4.80268 8.33793 4.08388C8.68606 3.73575 9.14909 3.54395 9.64141 3.54395C10.1339 3.54395 10.5968 3.73575 10.945 4.08388C11.2933 4.43212 11.4849 4.89504 11.4849 5.38747C11.4849 5.87991 11.2933 6.34283 10.945 6.69107C10.5968 7.0392 10.1339 7.231 9.64141 7.231V7.231ZM9.64141 4.45913C9.39353 4.45913 9.1603 4.55572 8.98498 4.73104C8.62312 5.09302 8.62312 5.68193 8.98498 6.04391C9.1603 6.21923 9.39353 6.31582 9.64141 6.31582C9.8894 6.31582 10.1225 6.21923 10.2978 6.04391C10.4732 5.86858 10.5698 5.63547 10.5698 5.38747C10.5698 5.13948 10.4732 4.90636 10.2978 4.73104C10.1225 4.55572 9.8894 4.45913 9.64141 4.45913Z" fill="#1B3B6B"/>
<path d="M14.2953 3.69336L12.8158 2.21387L2.8335 12.1962C2.91933 12.282 3.03571 12.3302 3.15702 12.3302H3.16274C3.20463 12.3298 4.20438 12.3142 5.59931 12.0242C6.39787 11.8582 7.16657 11.635 7.88435 11.3608C9.01033 10.9305 10.0099 10.3752 10.855 9.71044C11.146 9.48167 11.4234 9.23597 11.6792 8.98008C12.9057 7.75361 13.8246 6.12752 14.4105 4.14666C14.4582 3.98587 14.4139 3.81192 14.2953 3.69336V3.69336Z" fill="#CDEBFC"/>
<path d="M5.91182 11.335L4.80335 10.2266L1.23096 13.7988V13.799C1.3169 13.8848 1.43329 13.933 1.5546 13.933H1.56032C1.66137 13.9317 4.05147 13.8839 5.59402 12.3413C5.71807 12.2173 5.83732 12.0826 5.94821 11.941C6.09115 11.7588 6.07559 11.4987 5.91182 11.335V11.335Z" fill="#FDBF00"/>
<path d="M5.84002 9.18945L4.15625 10.8732L5.96854 12.6855C6.05426 12.7712 6.17064 12.8195 6.29207 12.8195C6.41349 12.8195 6.52976 12.7712 6.61559 12.6855L7.97572 11.3253L5.84002 9.18945Z" fill="#001035"/>
<path d="M10.6286 4.40039C10.6285 4.40039 10.6285 4.40039 10.6285 4.40039L8.6543 6.37461H8.65441C8.91797 6.63829 9.26862 6.78351 9.64146 6.78351C10.0143 6.78351 10.365 6.63829 10.6286 6.37461C10.8923 6.11094 11.0375 5.76041 11.0375 5.38756C11.0374 5.01471 10.8923 4.66406 10.6286 4.40039V4.40039Z" fill="#1CADB5"/>
<path d="M10.9451 4.08398L10.2979 4.73115C10.4733 4.90647 10.5698 5.13959 10.5698 5.38758C10.5698 5.63558 10.4733 5.86869 10.2979 6.04402C10.1226 6.21934 9.88949 6.31593 9.64149 6.31593C9.3935 6.31593 9.16038 6.21934 8.98506 6.04402C8.98506 6.04402 8.98506 6.04402 8.98506 6.0439L8.33789 6.69107V6.69118C8.68614 7.03931 9.14905 7.23111 9.64149 7.23111C10.1339 7.23111 10.5968 7.03931 10.9451 6.69118C11.2932 6.34294 11.485 5.88002 11.485 5.38758C11.485 4.89514 11.2932 4.43223 10.9451 4.08398Z" fill="#001035"/>
</g>
<defs>
<clipPath id="clip0">
<rect width="15" height="15" fill="white"/>
</clipPath>
</defs>
</svg>
